<svg width="137" height="40" viewBox="0 0 137 40" fill="none" xmlns="http://www.w3.org/2000/svg">
<path d="M54.1084 25.412H63.1698V22.9303H57.1012V11.1747H54.1084V25.412Z" fill="#A0A1A3"/>
<path d="M69.3092 25.6206C72.5302 25.6206 74.5346 23.403 74.5346 20.1148C74.5346 16.8056 72.5302 14.595 69.3092 14.595C66.0884 14.595 64.084 16.8056 64.084 20.1148C64.084 23.403 66.0884 25.6206 69.3092 25.6206ZM69.3231 23.3265C67.837 23.3265 67.0767 21.9569 67.0767 20.0938C67.0767 18.2308 67.837 16.8544 69.3231 16.8544C70.7815 16.8544 71.5417 18.2308 71.5417 20.0938C71.5417 21.9569 70.7815 23.3265 69.3231 23.3265Z" fill="#A0A1A3"/>
<path d="M80.6486 29.6388C83.6829 29.6388 85.8393 28.2483 85.8393 25.5163V14.734H82.9157V16.5276H82.8051C82.4111 15.6586 81.5472 14.595 79.7708 14.595C77.4415 14.595 75.4717 16.4164 75.4717 20.0522C75.4717 23.6045 77.3862 25.2591 79.7777 25.2591C81.4711 25.2591 82.418 24.404 82.8051 23.5211H82.9295V25.4746C82.9295 26.9414 81.9964 27.5115 80.7177 27.5115C79.4183 27.5115 78.7617 26.9414 78.5198 26.2949L75.7966 26.6634C76.149 28.3456 77.7871 29.6388 80.6486 29.6388ZM80.7108 23.0345C79.2662 23.0345 78.4783 21.8805 78.4783 20.0383C78.4783 18.2238 79.2525 16.9517 80.7108 16.9517C82.1416 16.9517 82.9433 18.1682 82.9433 20.0383C82.9433 21.9222 82.1277 23.0345 80.7108 23.0345Z" fill="#A0A1A3"/>
<path d="M92.3953 25.6206C95.6162 25.6206 97.6206 23.403 97.6206 20.1148C97.6206 16.8056 95.6162 14.595 92.3953 14.595C89.1744 14.595 87.1699 16.8056 87.1699 20.1148C87.1699 23.403 89.1744 25.6206 92.3953 25.6206ZM92.4091 23.3265C90.9231 23.3265 90.1627 21.9569 90.1627 20.0938C90.1627 18.2308 90.9231 16.8544 92.4091 16.8544C93.8675 16.8544 94.6278 18.2308 94.6278 20.0938C94.6278 21.9569 93.8675 23.3265 92.4091 23.3265Z" fill="#A0A1A3"/>
<path d="M98.9515 25.412H101.896V14.734H98.9515V25.412ZM100.431 13.3575C101.308 13.3575 102.027 12.6833 102.027 11.856C102.027 11.0357 101.308 10.3613 100.431 10.3613C99.5597 10.3613 98.8408 11.0357 98.8408 11.856C98.8408 12.6833 99.5597 13.3575 100.431 13.3575Z" fill="#A0A1A3"/>
<path d="M103.671 29.4163H106.615V23.7018H106.705C107.113 24.5917 108.004 25.5858 109.718 25.5858C112.138 25.5858 114.024 23.6602 114.024 20.0869C114.024 16.4164 112.054 14.595 109.725 14.595C107.949 14.595 107.099 15.6586 106.705 16.5276H106.573V14.734H103.671V29.4163ZM106.553 20.073C106.553 18.1682 107.354 16.9517 108.785 16.9517C110.244 16.9517 111.018 18.2238 111.018 20.073C111.018 21.9361 110.23 23.2291 108.785 23.2291C107.368 23.2291 106.553 21.9778 106.553 20.073Z" fill="#A0A1A3"/>
<path d="M124.237 17.7789C123.974 15.8116 122.398 14.595 119.716 14.595C117 14.595 115.21 15.8602 115.216 17.9179C115.21 19.5169 116.211 20.5527 118.285 20.9698L120.124 21.3383C121.05 21.5259 121.472 21.8666 121.485 22.4018C121.472 23.0345 120.788 23.4864 119.758 23.4864C118.707 23.4864 118.009 23.0345 117.83 22.1655L114.934 22.3185C115.21 24.3623 116.937 25.6206 119.751 25.6206C122.501 25.6206 124.471 24.2093 124.478 22.103C124.471 20.5597 123.469 19.6351 121.41 19.211L119.488 18.8216C118.5 18.6062 118.134 18.2655 118.141 17.7511C118.134 17.1116 118.852 16.6945 119.764 16.6945C120.788 16.6945 121.396 17.2575 121.54 17.9457L124.237 17.7789Z" fill="#A0A1A3"/>
<path d="M132.557 20.8655C132.564 22.2976 131.589 23.0484 130.532 23.0484C129.419 23.0484 128.7 22.2628 128.693 21.0045V14.734H125.749V21.5329C125.755 24.0286 127.207 25.551 129.343 25.551C130.939 25.551 132.087 24.7238 132.564 23.4724H132.674V25.412H135.501V14.734H132.557V20.8655Z" fill="#A0A1A3"/>
<path d="M17.4605 2.05127H26.6369L22.9535 12.4044C16.4704 13.5502 11.5118 19.859 11.5118 27.4697C11.5118 30.9031 12.521 34.0715 14.2238 36.6204H2.03906L13.1783 5.31084C13.8787 3.34217 15.5746 2.05127 17.4605 2.05127Z" fill="#A0A1A3"/>
<path d="M26.6373 2.05127L24.0486 9.32743L23.2686 2.05127H26.6373Z" fill="#A0A1A3"/>
<path d="M32.445 2.05127H23.2686L26.9364 12.3607C33.5485 13.3797 38.6422 19.7559 38.6422 27.4697C38.6422 30.9031 37.6331 34.0715 35.9302 36.6204H47.8663L36.7271 5.31085C36.0268 3.34217 34.3309 2.05127 32.445 2.05127Z" fill="#A0A1A3"/>
<path d="M15.8245 35.624C14.2564 33.3778 13.3213 30.5465 13.3213 27.4696C13.3213 20.1697 18.5848 14.2521 25.0775 14.2521C31.5704 14.2521 36.8339 20.1697 36.8339 27.4696C36.8339 30.5465 35.8988 33.3778 34.3306 35.624C31.7563 33.6964 28.5515 32.5533 25.0775 32.5533C21.6037 32.5533 18.3989 33.6964 15.8245 35.624Z" fill="#A0A1A3"/>
</svg>
