<svg width="187" height="40" viewBox="0 0 187 40" fill="none" xmlns="http://www.w3.org/2000/svg">
<path d="M29.9453 17.827C29.439 18.3354 29.0514 18.949 28.8099 19.624C28.5684 20.299 28.479 21.0189 28.5481 21.7324L28.524 21.7084C28.5951 22.5482 28.4816 23.3933 28.1916 24.1849C27.9016 24.9764 27.4421 25.6952 26.8452 26.2912C26.2481 26.887 25.528 27.3458 24.735 27.6352C23.9421 27.9246 23.0954 28.038 22.2542 27.967L22.2783 27.991C21.2719 27.8976 20.2612 28.1161 19.3838 28.617C18.5065 29.118 17.8052 29.8768 17.3758 30.7901C16.9463 31.7034 16.8094 32.7266 16.9839 33.7205C17.1585 34.7142 17.6357 35.6301 18.3507 36.3432C19.0657 37.0562 19.9836 37.5318 20.9793 37.705C21.975 37.8784 22.9999 37.7408 23.9145 37.3113C24.8291 36.8817 25.5886 36.1812 26.0896 35.3049C26.5906 34.4286 26.8087 33.4196 26.7142 32.415L26.7395 32.439C26.6685 31.5993 26.7819 30.7541 27.0719 29.9625C27.3618 29.171 27.8215 28.4522 28.4184 27.8562C29.0155 27.2604 29.7355 26.8016 30.5284 26.5122C31.3214 26.2228 32.168 26.1094 33.0094 26.1804L32.984 26.1564C33.806 26.2301 34.6335 26.0956 35.3896 25.7652C36.1456 25.4348 36.806 24.9192 37.3093 24.2662C37.8126 23.6133 38.1428 22.844 38.2689 22.0298C38.3951 21.2156 38.3134 20.3828 38.0313 19.6084C37.7492 18.8341 37.2758 18.1434 36.6551 17.6004C36.0344 17.0573 35.2864 16.6794 34.4804 16.5018C33.6744 16.3242 32.8365 16.3525 32.0445 16.5841C31.2524 16.8158 30.5318 17.2433 29.9493 17.827H29.9453Z" fill="#A0A1A3"/>
<path d="M20.0919 24.8483L20.0665 24.8243C20.7815 24.8962 21.5036 24.8086 22.1807 24.5678C22.8576 24.327 23.4726 23.9391 23.981 23.4321C24.4892 22.925 24.8784 22.3114 25.1201 21.6358C25.3618 20.9602 25.4501 20.2395 25.3787 19.5257L25.404 19.5497C25.333 18.7098 25.4465 17.8647 25.7364 17.0731C26.0263 16.2817 26.486 15.5629 27.0829 14.9669C27.68 14.371 28.4 13.9122 29.1929 13.6229C29.9859 13.3333 30.8325 13.2201 31.6739 13.291L31.6485 13.267C32.655 13.3614 33.666 13.1435 34.5438 12.6431C35.4218 12.1428 36.1235 11.3843 36.5536 10.4711C36.9837 9.55797 37.1212 8.5346 36.9473 7.54059C36.7734 6.54657 36.2965 5.63033 35.5816 4.91681C34.8669 4.20331 33.949 3.72725 32.9532 3.55363C31.9575 3.37999 30.9323 3.5172 30.0175 3.94656C29.1026 4.37591 28.3429 5.07651 27.8416 5.95279C27.3403 6.82905 27.122 7.83835 27.2166 8.84299L27.1926 8.81765C27.2638 9.65751 27.1505 10.5028 26.8606 11.2944C26.5708 12.086 26.1112 12.8049 25.5142 13.401C24.9172 13.9969 24.197 14.4557 23.4039 14.745C22.6108 15.0343 21.7641 15.1474 20.9227 15.0763L20.9468 15.1017C20.2318 15.0298 19.5095 15.1174 18.8326 15.3582C18.1557 15.5989 17.5407 15.9869 17.0323 16.4939C16.5239 17.001 16.1348 17.6146 15.8931 18.2902C15.6515 18.9658 15.5632 19.6865 15.6346 20.4003L15.6106 20.3763C15.6814 21.2161 15.5677 22.0611 15.2777 22.8526C14.9876 23.6439 14.5281 24.3627 13.9312 24.9586C13.3342 25.5545 12.6142 26.0131 11.8214 26.3027C11.0285 26.5922 10.182 26.7057 9.34074 26.635L9.36478 26.659C8.35835 26.5646 7.34725 26.7825 6.46941 27.2829C5.59157 27.7833 4.88972 28.5417 4.45961 29.4549C4.02948 30.3681 3.89201 31.3914 4.06596 32.3854C4.23991 33.3794 4.71682 34.2957 5.4316 35.0091C6.14639 35.7227 7.06427 36.1987 8.06006 36.3723C9.05584 36.5459 10.081 36.4087 10.9958 35.9794C11.9106 35.5501 12.6705 34.8495 13.1717 33.9733C13.673 33.0969 13.8913 32.0877 13.7967 31.083L13.8221 31.107C13.751 30.2671 13.8645 29.4221 14.1545 28.6305C14.4444 27.839 14.904 27.1202 15.5009 26.5242C16.098 25.9283 16.8181 25.4695 17.6109 25.1802C18.404 24.8907 19.2505 24.7774 20.0919 24.8483Z" fill="#A0A1A3"/>
<path d="M11.1399 22.1706C11.6462 21.6623 12.0338 21.0487 12.2751 20.3737C12.5164 19.6986 12.6054 18.9786 12.5358 18.2653L12.5611 18.2893C12.4901 17.4493 12.6035 16.6038 12.8937 15.8121C13.1838 15.0203 13.6436 14.3014 14.2409 13.7054C14.8383 13.1094 15.5586 12.6508 16.3519 12.3615C17.1452 12.0722 17.9921 11.9593 18.8336 12.0306L18.8083 12.0066C19.8143 12.1007 20.8251 11.8827 21.7025 11.3824C22.5799 10.8821 23.2813 10.1238 23.7113 9.21092C24.1411 8.29804 24.2784 7.27504 24.1045 6.2814C23.9306 5.28776 23.4537 4.37187 22.7393 3.65862C22.0248 2.94536 21.1072 2.46947 20.1118 2.29584C19.1164 2.1222 18.0915 2.2593 17.1771 2.68839C16.2625 3.11748 15.5029 3.81771 15.0017 4.69358C14.5005 5.56944 14.2821 6.57832 14.3764 7.58262L14.3523 7.55862C14.4234 8.39842 14.3098 9.24358 14.0199 10.0351C13.7299 10.8266 13.2704 11.5454 12.6734 12.1414C12.0764 12.7373 11.3563 13.196 10.5634 13.4854C9.77044 13.7749 8.92378 13.8882 8.08248 13.8173L8.10652 13.8413C7.28448 13.7677 6.45713 13.9025 5.70114 14.233C4.94515 14.5636 4.28498 15.0793 3.7818 15.7323C3.27862 16.3853 2.94873 17.1546 2.82266 17.9688C2.69661 18.783 2.77848 19.6158 3.06068 20.3899C3.34287 21.1642 3.81629 21.8547 4.43704 22.3977C5.05778 22.9408 5.80578 23.3185 6.61173 23.4961C7.41766 23.6736 8.25546 23.6451 9.04749 23.4135C9.83952 23.1818 10.5601 22.7544 11.1426 22.1706H11.1399Z" fill="#A0A1A3"/>
<path d="M52.5161 8.87305H56.4832V28.1437H52.5161V8.87305Z" fill="#A0A1A3"/>
<path d="M58.7302 21.5453C58.7247 20.1605 59.131 18.8051 59.8977 17.6509C60.6644 16.4968 61.757 15.5957 63.0372 15.062C64.3173 14.5281 65.7273 14.3856 67.0887 14.6524C68.45 14.9192 69.7015 15.5832 70.6844 16.5605C71.6674 17.5377 72.3376 18.7843 72.6104 20.1421C72.8831 21.5 72.746 22.9081 72.2163 24.1881C71.6867 25.468 70.7885 26.5624 69.6353 27.3323C68.4821 28.1023 67.1261 28.5133 65.7387 28.5133C64.8178 28.5239 63.9041 28.3509 63.0508 28.0048C62.1975 27.6587 61.422 27.1463 60.7695 26.4976C60.1169 25.8488 59.6005 25.0767 59.2504 24.2264C58.9002 23.3761 58.7234 22.4647 58.7302 21.5453ZM68.7801 21.5453C68.7635 20.9484 68.571 20.3696 68.2268 19.8812C67.8825 19.3929 67.4016 19.0167 66.8444 18.7997C66.287 18.5827 65.678 18.5344 65.0934 18.6611C64.5087 18.7877 63.9745 19.0835 63.5573 19.5116C63.1403 19.9396 62.8587 20.4809 62.7483 21.0679C62.6377 21.6547 62.7027 22.2611 62.9355 22.8112C63.1683 23.3613 63.5584 23.8307 64.0569 24.1607C64.5555 24.4907 65.1405 24.6667 65.7387 24.6667C66.1483 24.6776 66.5558 24.6036 66.9356 24.4495C67.3152 24.2953 67.6588 24.0644 67.9445 23.7712C68.2302 23.4779 68.452 23.1287 68.5958 22.7456C68.7396 22.3625 68.8024 21.9539 68.7801 21.5453Z" fill="#A0A1A3"/>
<path d="M88.5579 14.9457V27.4791C88.5579 31.9137 85.0931 33.7884 81.5761 33.7884C80.3379 33.8809 79.098 33.6312 77.9924 33.0668C76.887 32.5023 75.9585 31.6448 75.3089 30.5884L78.6936 28.6351C78.9667 29.1857 79.4017 29.64 79.9404 29.9372C80.4792 30.2343 81.0961 30.3601 81.7084 30.2977C82.0997 30.3519 82.4983 30.3175 82.8746 30.1971C83.2507 30.0767 83.595 29.8733 83.882 29.6023C84.1689 29.3311 84.391 28.9991 84.5321 28.6305C84.673 28.2621 84.7291 27.8668 84.6963 27.4737V26.2671C84.2318 26.8344 83.6406 27.2852 82.9699 27.5832C82.2993 27.8812 81.5681 28.0181 80.8348 27.9831C79.0901 27.9281 77.4353 27.1977 76.2206 25.9463C75.0059 24.6949 74.3267 23.0208 74.3267 21.2784C74.3267 19.536 75.0059 17.8619 76.2206 16.6105C77.4353 15.3591 79.0901 14.6287 80.8348 14.5737C81.5681 14.5387 82.2993 14.6756 82.9699 14.9736C83.6406 15.2716 84.2318 15.7224 84.6963 16.2897V14.9431L88.5579 14.9457ZM84.6977 21.2804C84.7244 20.6423 84.559 20.0107 84.2231 19.4671C83.8872 18.9233 83.3959 18.4925 82.8126 18.23C82.2293 17.9673 81.5807 17.8851 80.9501 17.9936C80.3195 18.1021 79.7359 18.3965 79.2743 18.8391C78.8128 19.2815 78.4945 19.8516 78.3603 20.4761C78.2261 21.1007 78.2822 21.7511 78.5216 22.3435C78.7608 22.9359 79.1722 23.4433 79.7028 23.8004C80.2333 24.1575 80.8588 24.3479 81.4986 24.3471C81.9155 24.3761 82.3337 24.3177 82.7266 24.1756C83.1194 24.0335 83.478 23.8107 83.7794 23.5219C84.0807 23.2329 84.3182 22.8843 84.4764 22.4981C84.6345 22.1121 84.71 21.6973 84.6977 21.2804Z" fill="#A0A1A3"/>
<path d="M90.8044 21.5453C90.7989 20.1605 91.2051 18.8051 91.9719 17.6509C92.7386 16.4968 93.8312 15.5957 95.1114 15.062C96.3915 14.5281 97.8015 14.3856 99.1629 14.6524C100.524 14.9192 101.776 15.5832 102.759 16.5605C103.742 17.5377 104.412 18.7843 104.685 20.1421C104.957 21.5 104.82 22.9081 104.291 24.1881C103.761 25.468 102.863 26.5624 101.71 27.3323C100.556 28.1023 99.2003 28.5133 97.8129 28.5133C96.892 28.5239 95.9781 28.3509 95.125 28.0048C94.2718 27.6587 93.4962 27.1463 92.8438 26.4976C92.1911 25.8488 91.6747 25.0767 91.3246 24.2264C90.9744 23.3761 90.7976 22.4647 90.8044 21.5453ZM100.854 21.5453C100.838 20.9484 100.645 20.3696 100.301 19.8812C99.9567 19.3929 99.4758 19.0167 98.9186 18.7997C98.3612 18.5827 97.7521 18.5344 97.1676 18.6611C96.583 18.7877 96.0487 19.0835 95.6315 19.5116C95.2145 19.9396 94.9329 20.4809 94.8223 21.0679C94.7117 21.6547 94.7769 22.2611 95.0098 22.8112C95.2426 23.3613 95.6326 23.8307 96.1311 24.1607C96.6297 24.4907 97.2146 24.6667 97.8129 24.6667C98.2225 24.6776 98.6301 24.6036 99.0097 24.4495C99.3894 24.2953 99.733 24.0644 100.019 23.7712C100.304 23.4779 100.526 23.1287 100.67 22.7456C100.814 22.3625 100.877 21.9539 100.854 21.5453Z" fill="#A0A1A3"/>
<path d="M106.671 11.4073C106.671 10.9373 106.811 10.4779 107.073 10.0872C107.334 9.69649 107.706 9.39195 108.141 9.21212C108.576 9.03228 109.054 8.98523 109.516 9.07691C109.978 9.16859 110.402 9.39488 110.735 9.72717C111.068 10.0595 111.294 10.4828 111.386 10.9437C111.478 11.4046 111.431 11.8823 111.251 12.3165C111.071 12.7507 110.765 13.1217 110.374 13.3829C109.983 13.6439 109.522 13.7833 109.052 13.7833C108.422 13.777 107.821 13.5247 107.375 13.0804C106.931 12.6362 106.678 12.0355 106.671 11.4073ZM107.072 14.9446H111.041V28.1446H107.067L107.072 14.9446Z" fill="#A0A1A3"/>
<path d="M128.17 21.545C128.215 22.4174 128.088 23.2902 127.795 24.1133C127.502 24.9364 127.048 25.6934 126.461 26.341C125.873 26.9885 125.164 27.5138 124.372 27.8866C123.581 28.2593 122.723 28.4722 121.849 28.513C121.114 28.553 120.379 28.4293 119.698 28.1508C119.016 27.8721 118.406 27.4457 117.91 26.9024V33.4237H113.943V14.945H117.91V16.185C118.406 15.6421 119.017 15.216 119.698 14.9377C120.379 14.6593 121.114 14.5357 121.849 14.5757C122.723 14.6164 123.581 14.8292 124.373 15.202C125.164 15.5748 125.874 16.1001 126.462 16.7478C127.049 17.3956 127.503 18.1529 127.796 18.9762C128.089 19.7994 128.216 20.6725 128.17 21.545ZM124.202 21.545C124.187 20.9273 123.989 20.3278 123.634 19.8216C123.279 19.3154 122.782 18.925 122.206 18.6994C121.63 18.4737 120.999 18.4226 120.394 18.5528C119.789 18.6828 119.236 18.9881 118.804 19.4305C118.371 19.873 118.079 20.4328 117.964 21.0401C117.849 21.6473 117.916 22.2748 118.157 22.8442C118.397 23.4137 118.801 23.8996 119.317 24.2413C119.833 24.5829 120.438 24.7652 121.057 24.765C121.482 24.784 121.906 24.7129 122.302 24.5566C122.697 24.4005 123.055 24.1625 123.352 23.8585C123.649 23.5544 123.879 23.1912 124.025 22.7925C124.172 22.3938 124.232 21.9686 124.202 21.545Z" fill="#A0A1A3"/>
<path d="M140.412 24.1832C140.412 27.2192 137.768 28.5125 134.913 28.5125C133.759 28.6168 132.6 28.3733 131.587 27.8132C130.573 27.2532 129.751 26.4025 129.227 25.3712L132.663 23.4178C132.802 23.8945 133.101 24.3093 133.509 24.5926C133.918 24.8761 134.412 25.0112 134.907 24.9752C135.858 24.9752 136.335 24.6845 136.335 24.1578C136.335 22.7045 129.829 23.4712 129.829 18.9045C129.829 16.0258 132.263 14.5752 135.013 14.5752C136.047 14.5425 137.07 14.7873 137.977 15.284C138.884 15.7808 139.641 16.5112 140.169 17.3992L136.784 19.2205C136.636 18.8748 136.389 18.5802 136.073 18.3737C135.758 18.1672 135.39 18.0578 135.013 18.0592C134.325 18.0592 133.902 18.3258 133.902 18.7978C133.907 20.3032 140.412 19.2992 140.412 24.1832Z" fill="#A0A1A3"/>
<path d="M154.903 14.9453V28.1453H150.936V26.904C150.477 27.4517 149.896 27.8833 149.239 28.1633C148.582 28.4433 147.869 28.5637 147.156 28.5146C144.484 28.5146 142.213 26.6146 142.213 23.048V14.9453H146.18V22.468C146.147 22.7824 146.183 23.1002 146.286 23.3993C146.387 23.6985 146.554 23.9718 146.774 24.2002C146.993 24.4286 147.258 24.6066 147.554 24.722C147.847 24.8373 148.164 24.8872 148.481 24.868C149.935 24.868 150.94 24.024 150.94 22.1493V14.9493L154.903 14.9453Z" fill="#A0A1A3"/>
<path d="M177.65 20.041V28.145H173.683V20.3836C173.683 19.0636 173.048 18.2196 171.779 18.2196C170.457 18.2196 169.716 19.1436 169.716 20.701V28.145H165.75V20.3836C165.75 19.0636 165.116 18.2196 163.845 18.2196C162.523 18.2196 161.783 19.1436 161.783 20.701V28.145H157.816V14.945H161.783V16.1583C162.194 15.62 162.734 15.1931 163.352 14.9167C163.972 14.6402 164.651 14.523 165.327 14.5756C166.005 14.5424 166.681 14.6855 167.289 14.9907C167.895 15.2958 168.412 15.7528 168.79 16.317C169.23 15.7267 169.812 15.2574 170.482 14.9528C171.153 14.6483 171.89 14.5186 172.625 14.5756C175.661 14.577 177.65 16.741 177.65 20.041Z" fill="#A0A1A3"/>
<path d="M181.005 14.8637C182.631 14.8637 183.949 13.5479 183.949 11.925C183.949 10.302 182.631 8.98633 181.005 8.98633C179.38 8.98633 178.062 10.302 178.062 11.925C178.062 13.5479 179.38 14.8637 181.005 14.8637Z" fill="#A0A1A3"/>
</svg>
