<svg width="182" height="40" viewBox="0 0 182 40" fill="none" xmlns="http://www.w3.org/2000/svg">
<path d="M53.3111 26.6949C53.3111 27.568 53.1309 28.239 52.7708 28.7077C52.4201 29.1765 51.8338 29.4109 51.0121 29.4109C50.2364 29.4109 49.6871 29.1765 49.3639 28.7077C49.05 28.239 48.8931 27.568 48.8931 26.6949V12.1223C48.8931 11.2491 49.05 10.5781 49.3639 10.1094C49.6871 9.64063 50.2364 9.40625 51.0121 9.40625C51.8338 9.40625 52.4201 9.64063 52.7708 10.1094C53.1309 10.5781 53.3111 11.2491 53.3111 12.1223V26.6949Z" fill="#A0A1A3"/>
<path d="M54.6523 22.4642C54.6523 21.4898 54.8093 20.5708 55.1233 19.7068C55.4464 18.8336 55.9265 18.0708 56.5636 17.4182C57.2099 16.7656 58.0132 16.2463 58.9734 15.8603C59.9429 15.4742 61.0785 15.2812 62.3804 15.2812C63.6268 15.2812 64.7302 15.4604 65.6904 15.8189C66.6506 16.1774 67.4585 16.6783 68.114 17.3217C68.7695 17.9558 69.2681 18.7141 69.6098 19.5964C69.9513 20.4696 70.1222 21.4255 70.1222 22.4642C70.1222 23.4292 69.9606 24.3437 69.6374 25.2077C69.3143 26.0624 68.8296 26.8162 68.1832 27.4688C67.537 28.1121 66.7291 28.6268 65.7597 29.0129C64.7901 29.3897 63.6637 29.5781 62.3804 29.5781C61.1155 29.5781 59.9983 29.3989 59.0287 29.0404C58.0685 28.6728 57.2607 28.1718 56.6052 27.5376C55.9588 26.8943 55.4695 26.1407 55.1371 25.2767C54.8139 24.4035 54.6523 23.466 54.6523 22.4642ZM59.2643 22.4642C59.2643 23.0708 59.3196 23.6498 59.4304 24.2012C59.5412 24.7435 59.7167 25.2215 59.9567 25.6351C60.2059 26.0487 60.5292 26.3796 60.9261 26.6277C61.3232 26.8667 61.8079 26.9862 62.3804 26.9862C62.9066 26.9862 63.3636 26.876 63.7514 26.6553C64.1485 26.4348 64.4716 26.1268 64.721 25.7316C64.9794 25.3364 65.1734 24.863 65.3025 24.3116C65.4318 23.7509 65.4965 23.1351 65.4965 22.4642C65.4965 21.8575 65.4364 21.283 65.3165 20.7408C65.2056 20.1894 65.0256 19.7068 64.7763 19.2931C64.527 18.8704 64.2039 18.5395 63.8068 18.3005C63.4191 18.0524 62.9435 17.9283 62.3804 17.9283C61.8171 17.9283 61.3371 18.0477 60.94 18.2868C60.543 18.5257 60.2199 18.852 59.9705 19.2656C59.7213 19.6792 59.5412 20.1617 59.4304 20.7132C59.3196 21.2647 59.2643 21.8483 59.2643 22.4642Z" fill="#A0A1A3"/>
<path d="M81.4903 26.7517C81.2409 27.2112 80.9363 27.6018 80.5762 27.9235C80.2254 28.2452 79.8329 28.5118 79.3991 28.7232C78.9743 28.9253 78.5173 29.0769 78.0279 29.1781C77.5478 29.27 77.0539 29.316 76.5461 29.316C75.6966 29.316 74.9211 29.1644 74.2193 28.8609C73.5176 28.5577 72.9129 28.1211 72.4051 27.5513C71.9065 26.9722 71.5187 26.2645 71.2417 25.4281C70.9647 24.5917 70.8262 23.6358 70.8262 22.5605C70.8262 21.5494 70.9555 20.6027 71.214 19.7204C71.4725 18.838 71.8464 18.0706 72.3358 17.418C72.8344 16.7654 73.4438 16.2507 74.164 15.8739C74.8841 15.4971 75.7059 15.3086 76.6291 15.3086C77.6817 15.3086 78.6142 15.5108 79.4267 15.9152C80.2485 16.3197 80.9548 16.9814 81.5457 17.9005V17.5421C81.5457 16.8804 81.7257 16.384 82.0858 16.0531C82.4551 15.7131 82.963 15.5429 83.6093 15.5429C83.9971 15.5429 84.3248 15.6073 84.5926 15.736C84.8603 15.8555 85.0726 16.0393 85.2296 16.2875C85.3867 16.5265 85.4974 16.8252 85.562 17.1837C85.6359 17.5328 85.6728 17.9327 85.6728 18.3831V27.6202C85.6728 28.7415 85.5298 29.7433 85.2435 30.6257C84.9665 31.508 84.5325 32.2526 83.9416 32.8592C83.3507 33.4658 82.5937 33.9253 81.6703 34.2379C80.7471 34.5595 79.6483 34.7204 78.3742 34.7204C77.4786 34.7204 76.6846 34.6791 75.992 34.5962C75.3088 34.5228 74.7179 34.4079 74.2193 34.2517C73.7208 34.0769 73.3423 33.884 73.0837 33.6726C72.8344 33.4612 72.7098 33.1854 72.7098 32.8454C72.7098 32.6524 72.7374 32.4686 72.7928 32.2939C72.8483 32.1193 72.9313 31.9631 73.0421 31.8252C73.1622 31.6965 73.3145 31.5908 73.4992 31.508C73.693 31.4346 73.9284 31.3978 74.2055 31.3978C74.5009 31.3978 74.7964 31.4161 75.0918 31.4529C75.3965 31.4897 75.7105 31.5265 76.0336 31.5632C76.3659 31.6092 76.7122 31.6505 77.0723 31.6873C77.4416 31.724 77.8386 31.7425 78.2634 31.7425C78.7712 31.7425 79.2236 31.6919 79.6207 31.5908C80.0176 31.4897 80.3546 31.3105 80.6316 31.0531C80.9086 30.7958 81.121 30.4511 81.2687 30.0191C81.4164 29.5962 81.4903 29.054 81.4903 28.3922V26.7517ZM81.4903 22.464C81.4903 21.7929 81.4395 21.1818 81.338 20.6304C81.2457 20.0788 81.084 19.6101 80.8532 19.224C80.6224 18.8288 80.3131 18.5255 79.9253 18.3141C79.5375 18.0935 79.0528 17.9833 78.4711 17.9833C77.8986 17.9833 77.4232 18.0981 77.0447 18.3279C76.6753 18.5577 76.3799 18.8748 76.1583 19.2792C75.9367 19.6837 75.7798 20.1569 75.6873 20.6993C75.6043 21.2415 75.5628 21.8206 75.5628 22.4364C75.5628 23.8426 75.812 24.8997 76.3106 25.6073C76.8091 26.3151 77.5339 26.6689 78.4849 26.6689C78.9281 26.6598 79.3298 26.5769 79.6898 26.4207C80.0591 26.2553 80.3778 26.0026 80.6454 25.6625C80.9132 25.3224 81.121 24.8904 81.2687 24.3665C81.4164 23.8426 81.4903 23.2085 81.4903 22.464Z" fill="#A0A1A3"/>
<path d="M86.9448 22.4642C86.9448 21.4898 87.1018 20.5708 87.4157 19.7068C87.7389 18.8336 88.2189 18.0708 88.8561 17.4182C89.5024 16.7656 90.3056 16.2463 91.2658 15.8603C92.2353 15.4742 93.371 15.2812 94.6728 15.2812C95.9192 15.2812 97.0225 15.4604 97.9828 15.8189C98.943 16.1774 99.7509 16.6783 100.406 17.3217C101.062 17.9558 101.561 18.7141 101.902 19.5964C102.244 20.4696 102.415 21.4255 102.415 22.4642C102.415 23.4292 102.253 24.3437 101.93 25.2077C101.607 26.0624 101.122 26.8162 100.476 27.4688C99.8294 28.1121 99.0215 28.6268 98.052 29.0129C97.0826 29.3897 95.9562 29.5781 94.6728 29.5781C93.4078 29.5781 92.2907 29.3989 91.3212 29.0404C90.361 28.6728 89.5531 28.1718 88.8975 27.5376C88.2513 26.8943 87.7619 26.1407 87.4295 25.2767C87.1064 24.4035 86.9448 23.466 86.9448 22.4642ZM91.5566 22.4642C91.5566 23.0708 91.6121 23.6498 91.7229 24.2012C91.8337 24.7435 92.009 25.2215 92.2492 25.6351C92.4984 26.0487 92.8215 26.3796 93.2186 26.6277C93.6156 26.8667 94.1004 26.9862 94.6728 26.9862C95.1991 26.9862 95.6561 26.876 96.0439 26.6553C96.4408 26.4348 96.7641 26.1268 97.0133 25.7316C97.2719 25.3364 97.4657 24.863 97.595 24.3116C97.7243 23.7509 97.7889 23.1351 97.7889 22.4642C97.7889 21.8575 97.7289 21.283 97.6088 20.7408C97.4981 20.1894 97.318 19.7068 97.0687 19.2931C96.8195 18.8704 96.4963 18.5395 96.0993 18.3005C95.7115 18.0524 95.236 17.9283 94.6728 17.9283C94.1096 17.9283 93.6294 18.0477 93.2324 18.2868C92.8355 18.5257 92.5123 18.852 92.263 19.2656C92.0138 19.6792 91.8337 20.1617 91.7229 20.7132C91.6121 21.2647 91.5566 21.8483 91.5566 22.4642Z" fill="#A0A1A3"/>
<path d="M108.354 10.6345C108.354 10.9379 108.285 11.209 108.146 11.448C108.007 11.6777 107.827 11.8707 107.606 12.0271C107.384 12.1833 107.126 12.3027 106.83 12.3854C106.544 12.4589 106.249 12.4958 105.944 12.4958C105.621 12.4958 105.312 12.4543 105.016 12.3716C104.73 12.2889 104.476 12.1695 104.254 12.0132C104.033 11.8478 103.857 11.6502 103.728 11.4204C103.599 11.1906 103.534 10.9287 103.534 10.6345C103.534 10.368 103.594 10.1244 103.714 9.90384C103.843 9.67406 104.014 9.47645 104.227 9.311C104.439 9.14557 104.693 9.01689 104.988 8.92498C105.284 8.83306 105.607 8.78711 105.958 8.78711C106.263 8.78711 106.558 8.82847 106.844 8.91119C107.14 8.99391 107.398 9.11339 107.62 9.26965C107.841 9.4259 108.017 9.61891 108.146 9.84869C108.285 10.0785 108.354 10.3404 108.354 10.6345ZM108.146 26.6961C108.146 27.5693 107.966 28.2402 107.606 28.7089C107.255 29.1778 106.669 29.4121 105.847 29.4121C105.071 29.4121 104.522 29.1778 104.199 28.7089C103.885 28.2402 103.728 27.5693 103.728 26.6961V18.2586C103.728 17.3854 103.885 16.7145 104.199 16.2458C104.522 15.7771 105.071 15.5426 105.847 15.5426C106.669 15.5426 107.255 15.7771 107.606 16.2458C107.966 16.7145 108.146 17.3854 108.146 18.2586V26.6961Z" fill="#A0A1A3"/>
<path d="M114.515 22.4364C114.515 23.0522 114.561 23.6266 114.653 24.1598C114.755 24.6928 114.921 25.1615 115.152 25.566C115.392 25.9612 115.706 26.2737 116.094 26.5034C116.491 26.7333 116.98 26.8481 117.562 26.8481C118.097 26.8481 118.545 26.7379 118.905 26.5173C119.274 26.2875 119.57 25.9749 119.792 25.5798C120.013 25.1753 120.17 24.702 120.262 24.1598C120.364 23.6174 120.415 23.0292 120.415 22.3951C120.415 21.8895 120.378 21.3748 120.303 20.8509C120.23 20.3178 120.092 19.8353 119.889 19.4033C119.685 18.9713 119.404 18.6174 119.044 18.3417C118.683 18.066 118.213 17.9281 117.631 17.9281C117.049 17.9281 116.555 18.02 116.149 18.2039C115.752 18.3877 115.429 18.668 115.18 19.0448C114.939 19.4217 114.769 19.8951 114.667 20.4648C114.566 21.0255 114.515 21.6827 114.515 22.4364ZM114.501 18.2589C114.732 17.7719 115.027 17.3445 115.387 16.9768C115.747 16.6092 116.144 16.3013 116.578 16.0531C117.012 15.8049 117.465 15.6211 117.936 15.5017C118.416 15.3729 118.891 15.3086 119.362 15.3086C120.211 15.3086 120.978 15.4971 121.661 15.8739C122.344 16.2507 122.926 16.7654 123.406 17.418C123.895 18.0614 124.27 18.8242 124.528 19.7066C124.786 20.5798 124.916 21.5173 124.916 22.5191C124.916 23.5577 124.777 24.5089 124.5 25.3729C124.233 26.2369 123.849 26.9814 123.35 27.6064C122.861 28.2222 122.27 28.7047 121.577 29.054C120.894 29.4033 120.133 29.5779 119.293 29.5779C118.259 29.5779 117.335 29.3389 116.523 28.8609C115.71 28.3831 115.036 27.7121 114.501 26.8481V31.8114C114.501 32.6845 114.321 33.3555 113.961 33.8242C113.61 34.2929 113.024 34.5274 112.202 34.5274C111.426 34.5274 110.877 34.2929 110.554 33.8242C110.24 33.3555 110.083 32.6845 110.083 31.8114V18.2589C110.083 17.3858 110.24 16.7148 110.554 16.2461C110.877 15.7774 111.426 15.5429 112.202 15.5429C113.024 15.5429 113.61 15.7774 113.961 16.2461C114.321 16.7148 114.501 17.3858 114.501 18.2589Z" fill="#A0A1A3"/>
<path d="M129.788 19.2381C129.788 19.5964 129.945 19.8768 130.259 20.079C130.573 20.2721 131.007 20.4329 131.561 20.5616C132.087 20.681 132.627 20.796 133.181 20.9062C133.736 21.0165 134.276 21.1452 134.802 21.2923C135.327 21.4301 135.821 21.5956 136.284 21.7885C136.744 21.9816 137.151 22.2251 137.502 22.5193C137.853 22.8042 138.13 23.1535 138.333 23.567C138.536 23.9715 138.638 24.4587 138.638 25.0284C138.638 25.7454 138.49 26.3842 138.195 26.9448C137.899 27.4963 137.48 27.965 136.935 28.3511C136.399 28.7371 135.758 29.0358 135.01 29.2472C134.261 29.4587 133.435 29.5689 132.53 29.5781C131.672 29.5781 130.845 29.523 130.051 29.4127C129.258 29.3116 128.551 29.1507 127.932 28.9301C127.323 28.7095 126.834 28.4384 126.464 28.1167C126.095 27.7858 125.911 27.3998 125.911 26.9587C125.911 26.5725 126.035 26.2738 126.284 26.0624C126.534 25.8511 126.851 25.7454 127.24 25.7454C127.388 25.7454 127.563 25.7729 127.766 25.8281C127.969 25.8833 128.19 25.9522 128.43 26.0349C128.67 26.1176 128.924 26.2095 129.193 26.3107C129.469 26.4025 129.755 26.4852 130.051 26.5588C130.421 26.66 130.799 26.7427 131.186 26.807C131.583 26.8621 131.99 26.8897 132.406 26.8897C132.664 26.8897 132.918 26.8667 133.167 26.8208C133.416 26.7656 133.639 26.6875 133.832 26.5864C134.036 26.4761 134.201 26.3382 134.331 26.1728C134.46 26.0074 134.538 25.8051 134.566 25.5662C134.594 25.511 134.617 25.4558 134.635 25.4007C134.654 25.3456 134.663 25.2812 134.663 25.2077C134.663 24.9503 134.543 24.7205 134.303 24.5183C134.072 24.3162 133.744 24.1553 133.32 24.0358C132.608 23.8704 131.93 23.7188 131.283 23.5809C130.638 23.443 130.038 23.296 129.483 23.1397C128.939 22.9835 128.44 22.8042 127.987 22.602C127.544 22.3998 127.166 22.1516 126.851 21.8575C126.548 21.5634 126.307 21.2095 126.132 20.796C125.965 20.3823 125.882 19.8814 125.882 19.2931C125.882 18.659 126.025 18.0937 126.311 17.5974C126.607 17.0918 127.028 16.6691 127.572 16.329C128.117 15.9889 128.777 15.7316 129.553 15.557C130.328 15.3731 131.205 15.2812 132.184 15.2812C133.938 15.2812 135.272 15.4927 136.187 15.9154C137.11 16.329 137.572 16.8712 137.572 17.5423C137.572 17.9191 137.446 18.2087 137.197 18.4108C136.948 18.6038 136.648 18.7003 136.298 18.7003C136.112 18.7003 135.918 18.6682 135.715 18.6038C135.521 18.5303 135.286 18.4522 135.01 18.3695C134.732 18.2776 134.4 18.1995 134.012 18.1351C133.634 18.0616 133.162 18.0248 132.6 18.0248C132.174 18.0248 131.787 18.0431 131.436 18.08C131.094 18.1167 130.799 18.181 130.549 18.2729C130.309 18.3649 130.12 18.4889 129.982 18.6452C129.852 18.8015 129.788 18.999 129.788 19.2381Z" fill="#A0A1A3"/>
<path d="M144.258 24.2976C144.258 24.7296 144.314 25.1064 144.425 25.4281C144.544 25.7498 144.706 26.021 144.91 26.2416C145.113 26.453 145.348 26.6138 145.615 26.724C145.893 26.8252 146.188 26.8758 146.502 26.8758C146.871 26.8758 147.227 26.8206 147.569 26.7103C147.91 26.6 148.21 26.4299 148.469 26.2001C148.736 25.9704 148.949 25.6809 149.106 25.3316C149.262 24.9824 149.341 24.5733 149.341 24.1046V18.259C149.341 17.3858 149.499 16.7149 149.812 16.2461C150.136 15.7774 150.685 15.543 151.46 15.543C152.282 15.543 152.868 15.7774 153.219 16.2461C153.579 16.7149 153.759 17.3858 153.759 18.259V26.6965C153.759 27.5697 153.579 28.2406 153.219 28.7093C152.868 29.1781 152.282 29.4125 151.46 29.4125C150.685 29.4125 150.136 29.1781 149.812 28.7093C149.499 28.2406 149.341 27.5697 149.341 26.6965C149.148 27.1193 148.894 27.5053 148.579 27.8546C148.274 28.2039 147.915 28.5072 147.499 28.7645C147.092 29.0127 146.641 29.2057 146.142 29.3436C145.653 29.4814 145.121 29.5504 144.549 29.5504C143.931 29.5504 143.335 29.4446 142.762 29.2333C142.2 29.0127 141.701 28.691 141.267 28.2681C140.834 27.8363 140.487 27.3031 140.228 26.669C139.97 26.0347 139.841 25.2949 139.841 24.4492V18.259C139.841 17.3858 139.998 16.7149 140.311 16.2461C140.635 15.7774 141.183 15.543 141.96 15.543C142.781 15.543 143.367 15.7774 143.718 16.2461C144.079 16.7149 144.258 17.3858 144.258 18.259V24.2976Z" fill="#A0A1A3"/>
<path d="M155.765 18.2589C155.765 17.3858 155.922 16.7148 156.236 16.2461C156.559 15.7774 157.108 15.5429 157.884 15.5429C158.706 15.5429 159.292 15.7774 159.643 16.2461C160.003 16.7148 160.183 17.3858 160.183 18.2589C160.368 17.8178 160.617 17.418 160.932 17.0595C161.254 16.6919 161.619 16.3794 162.025 16.122C162.441 15.8647 162.889 15.6671 163.368 15.5292C163.848 15.3821 164.347 15.3086 164.865 15.3086C165.344 15.3086 165.815 15.3729 166.277 15.5017C166.747 15.6211 167.182 15.8187 167.579 16.0945C167.985 16.3609 168.34 16.7011 168.645 17.1147C168.95 17.5282 169.185 18.0246 169.352 18.6037C169.638 17.9879 169.975 17.4686 170.362 17.0458C170.75 16.6229 171.171 16.2828 171.622 16.0255C172.075 15.7681 172.546 15.5844 173.036 15.474C173.534 15.3638 174.032 15.3086 174.531 15.3086C175.122 15.3086 175.685 15.4144 176.221 15.6257C176.766 15.8371 177.241 16.1588 177.647 16.5908C178.063 17.0135 178.391 17.5513 178.63 18.2039C178.88 18.8472 179.004 19.6009 179.004 20.4648V26.6965C179.004 27.5697 178.824 28.2406 178.464 28.7093C178.114 29.1781 177.527 29.4125 176.705 29.4125C175.93 29.4125 175.38 29.1781 175.058 28.7093C174.743 28.2406 174.586 27.5697 174.586 26.6965V20.6579C174.586 20.2442 174.531 19.8766 174.421 19.5549C174.31 19.224 174.153 18.9484 173.949 18.7278C173.755 18.498 173.525 18.3279 173.257 18.2177C172.99 18.0981 172.702 18.0384 172.399 18.0384C172.019 18.0384 171.66 18.0981 171.319 18.2177C170.977 18.3371 170.677 18.5209 170.418 18.7691C170.169 19.0173 169.965 19.3344 169.808 19.7204C169.66 20.1064 169.587 20.5706 169.587 21.1128V26.6965C169.587 27.5697 169.406 28.2406 169.047 28.7093C168.696 29.1781 168.11 29.4125 167.287 29.4125C166.512 29.4125 165.963 29.1781 165.64 28.7093C165.326 28.2406 165.168 27.5697 165.168 26.6965V20.9198C165.168 19.9732 164.97 19.2562 164.574 18.7691C164.185 18.282 163.654 18.0384 162.981 18.0384C162.584 18.0384 162.214 18.1027 161.872 18.2314C161.531 18.3601 161.235 18.5485 160.986 18.7967C160.737 19.0448 160.538 19.3527 160.39 19.7204C160.252 20.088 160.183 20.5108 160.183 20.9887V26.6965C160.183 27.5697 160.003 28.2406 159.643 28.7093C159.292 29.1781 158.706 29.4125 157.884 29.4125C157.108 29.4125 156.559 29.1781 156.236 28.7093C155.922 28.2406 155.765 27.5697 155.765 26.6965V18.2589Z" fill="#A0A1A3"/>
<path d="M20.0909 27.0588C16.1747 27.0588 13 23.8985 13 20C13 16.1015 16.1747 12.9412 20.0909 12.9412C24.0071 12.9412 27.1818 16.1015 27.1818 20C27.1818 23.8985 24.0071 27.0588 20.0909 27.0588Z" fill="#A0A1A3"/>
<path d="M6.35395 22.4113C4.29907 22.772 2.89055 24.748 3.67936 26.6711C4.78062 29.3558 6.53755 31.7478 8.81528 33.617C12.0723 36.2896 16.1803 37.7177 20.4005 37.6444C24.6208 37.5711 28.6763 36.0011 31.8377 33.2169C34.0484 31.2698 35.7204 28.8182 36.727 26.0969C37.4479 24.1476 35.9709 22.2217 33.9046 21.9326C31.8384 21.6436 29.9832 23.1408 28.9626 24.9525C28.4094 25.9345 27.6912 26.8255 26.8308 27.5832C25.017 29.1807 22.6901 30.0815 20.2688 30.1236C17.8473 30.1656 15.4903 29.3463 13.6216 27.8128C12.7351 27.0853 11.9862 26.2199 11.3989 25.2577C10.3154 23.4825 8.40884 22.0506 6.35395 22.4113Z" fill="#A0A1A3"/>
<path d="M37.6812 22.2039C37.7718 21.4814 37.8183 20.7454 37.8183 19.9986C37.8183 10.2524 29.8816 2.35156 20.091 2.35156C10.3005 2.35156 2.36377 10.2524 2.36377 19.9986C2.36377 20.9571 2.44053 21.8977 2.58827 22.8147C3.40252 21.7051 4.67335 20.913 6.04603 20.672C7.53121 20.4113 8.881 20.7699 10.0223 21.4402C9.95485 20.9693 9.91996 20.488 9.91996 19.9986C9.91996 14.4067 14.4737 9.87356 20.091 9.87356C25.7083 9.87356 30.2621 14.4067 30.2621 19.9986C30.2621 20.3673 30.2423 20.7314 30.2037 21.0899C31.3209 20.3802 32.6576 19.9746 34.1513 20.1837C35.5311 20.3767 36.8285 21.1238 37.6812 22.2039Z" fill="#A0A1A3"/>
</svg>
