<svg width="60" height="60" viewBox="0 0 60 60" fill="none" xmlns="http://www.w3.org/2000/svg">
<path d="M45 8.125H12.5C8.7075 8.125 5.625 11.2075 5.625 15V35C5.625 38.7925 8.7075 41.875 12.5 41.875H31.075C32.11 41.875 32.95 41.035 32.95 40C32.95 38.965 32.11 38.125 31.075 38.125H12.5C10.7775 38.125 9.375 36.7225 9.375 35V21.875H48.125V29.575C48.125 30.61 48.965 31.45 50 31.45C51.035 31.45 51.875 30.61 51.875 29.575V15C51.875 11.2075 48.7925 8.125 45 8.125ZM9.375 18.125V15C9.375 13.2775 10.7775 11.875 12.5 11.875H45C46.7225 11.875 48.125 13.2775 48.125 15V18.125H9.375ZM25 30.625C26.035 30.625 26.875 31.465 26.875 32.5C26.875 33.535 26.035 34.375 25 34.375H22.5C21.465 34.375 20.625 33.535 20.625 32.5C20.625 31.465 21.465 30.625 22.5 30.625H25ZM17.5 30.625C18.535 30.625 19.375 31.465 19.375 32.5C19.375 33.535 18.535 34.375 17.5 34.375H15C13.965 34.375 13.125 33.535 13.125 32.5C13.125 31.465 13.965 30.625 15 30.625H17.5Z" fill="#01081B"/>
<path d="M51.865 28.46L43.43 23.7025C42.06 22.93 40.4325 22.9325 39.0725 23.7025L30.635 28.46C29.0875 29.335 28.125 31.045 28.125 32.93V33.75C28.125 42.285 33.3125 49.71 40.74 51.805C40.9075 51.8525 41.08 51.875 41.25 51.875C41.42 51.875 41.5925 51.85 41.76 51.805C49.1875 49.71 54.375 42.285 54.375 33.75V32.93C54.375 31.045 53.4125 29.335 51.865 28.46ZM50.625 33.75C50.625 40.4125 46.7975 46.2025 41.25 48.04C35.7025 46.205 31.875 40.4125 31.875 33.75V32.93C31.875 32.4125 32.1175 31.93 32.475 31.7275L40.915 26.97C41.025 26.9075 41.1375 26.8775 41.25 26.8775C41.3625 26.8775 41.4775 26.9075 41.5875 26.97L50.025 31.7275C50.385 31.93 50.625 32.4125 50.625 32.93V33.75ZM46.325 33.675C47.0575 34.4075 47.0575 35.595 46.325 36.3275L41.325 41.3275C40.96 41.6925 40.48 41.8775 40 41.8775C39.52 41.8775 39.04 41.695 38.675 41.3275L36.175 38.8275C35.4425 38.095 35.4425 36.9075 36.175 36.175C36.9075 35.4425 38.095 35.4425 38.8275 36.175L40.0025 37.35L43.6775 33.675C44.41 32.9425 45.5975 32.9425 46.33 33.675H46.325Z" fill="#2E68FD"/>
</svg>
