<svg width="60" height="60" viewBox="0 0 60 60" fill="none" xmlns="http://www.w3.org/2000/svg">
<path d="M38.1251 17.5V12.5C38.1251 10.7775 36.5201 9.375 34.5501 9.375H15.4476C13.4776 9.375 11.8726 10.7775 11.8726 12.5V47.5C11.8726 49.2225 13.4776 50.625 15.4476 50.625H34.5501C36.5201 50.625 38.1251 49.2225 38.1251 47.5V37.5C38.1251 36.465 38.9651 35.625 40.0001 35.625C41.0351 35.625 41.8751 36.465 41.8751 37.5V47.5C41.8751 51.2925 38.5901 54.375 34.5501 54.375H15.4476C11.4101 54.375 8.12256 51.2925 8.12256 47.5V12.5C8.12256 8.7075 11.4076 5.625 15.4476 5.625H34.5501C38.5876 5.625 41.8751 8.7075 41.8751 12.5V17.5C41.8751 18.535 41.0351 19.375 40.0001 19.375C38.9651 19.375 38.1251 18.535 38.1251 17.5Z" fill="#01081B"/>
<path d="M45 15.625H27.5C23.7075 15.625 20.625 18.7075 20.625 22.5V32.5C20.625 36.2925 23.7075 39.375 27.5 39.375H45C48.7925 39.375 51.875 36.2925 51.875 32.5V22.5C51.875 18.7075 48.7925 15.625 45 15.625ZM27.5 19.375H45C46.7225 19.375 48.125 20.7775 48.125 22.5V23.125H24.375V22.5C24.375 20.7775 25.7775 19.375 27.5 19.375ZM45 35.625H27.5C25.7775 35.625 24.375 34.2225 24.375 32.5V26.875H48.125V32.5C48.125 34.2225 46.7225 35.625 45 35.625Z" fill="#2E68FD"/>
</svg>
