<svg width="60" height="60" viewBox="0 0 60 60" fill="none" xmlns="http://www.w3.org/2000/svg">
<path d="M46.875 12.5V30C46.875 31.035 46.035 31.875 45 31.875C43.965 31.875 43.125 31.035 43.125 30V12.5C43.125 10.7775 41.7225 9.375 40 9.375H15C13.2775 9.375 11.875 10.7775 11.875 12.5V45C11.875 46.7225 13.2775 48.125 15 48.125H30C31.035 48.125 31.875 48.965 31.875 50C31.875 51.035 31.035 51.875 30 51.875H15C11.2075 51.875 8.125 48.7925 8.125 45V12.5C8.125 8.7075 11.2075 5.625 15 5.625H40C43.7925 5.625 46.875 8.7075 46.875 12.5ZM37.5 13.125H17.5C16.465 13.125 15.625 13.965 15.625 15C15.625 16.035 16.465 16.875 17.5 16.875H37.5C38.535 16.875 39.375 16.035 39.375 15C39.375 13.965 38.535 13.125 37.5 13.125ZM29.375 22.5C29.375 21.465 28.535 20.625 27.5 20.625H17.5C16.465 20.625 15.625 21.465 15.625 22.5C15.625 23.535 16.465 24.375 17.5 24.375H27.5C28.535 24.375 29.375 23.535 29.375 22.5ZM17.5 28.125C16.465 28.125 15.625 28.965 15.625 30C15.625 31.035 16.465 31.875 17.5 31.875H20C21.035 31.875 21.875 31.035 21.875 30C21.875 28.965 21.035 28.125 20 28.125H17.5Z" fill="#01081B"/>
<g clip-path="url(#clip0_1_232)">
<path d="M33.9589 44.9589L37.9177 41M41.8766 37.0411L37.9177 41M37.9177 41L33.9589 37.0411M37.9177 41L41.8766 44.9589" stroke="#2E68FD" stroke-width="3.47504" stroke-linecap="round" stroke-linejoin="round"/>
<path d="M37.4998 52.5833C44.1733 52.5833 49.5832 47.1734 49.5832 40.5C49.5832 33.8265 44.1733 28.4166 37.4998 28.4166C30.8264 28.4166 25.4165 33.8265 25.4165 40.5C25.4165 47.1734 30.8264 52.5833 37.4998 52.5833Z" stroke="#2E68FD" stroke-width="3.86667" stroke-linecap="round" stroke-linejoin="round"/>
</g>
<defs>
<clipPath id="clip0_1_232">
<rect width="29" height="29" fill="white" transform="translate(23 26)"/>
</clipPath>
</defs>
</svg>
